<svg width="196" height="31" viewBox="0 0 196 31" fill="none" xmlns="http://www.w3.org/2000/svg">
<path d="M15.5709 5.11267L25.0237 30.837H19.3634L17.5806 25.5494H7.39852L5.68665 30.837H0L9.3373 5.11267H15.5709ZM8.81867 21.212H16.1159L12.4754 10.2631L8.81867 21.212V21.212Z" fill="#055E7C"/>
<path d="M32.594 5.11267H44.9559C50.3894 5.11267 53.1952 7.43444 53.1952 11.6168C53.1952 14.191 52.1802 15.9502 50.0632 16.9163C52.8002 17.9917 54.117 19.9915 54.117 23.009C54.117 27.903 50.7561 30.835 44.5609 30.835H32.594V5.11267ZM43.9369 15.0537C46.5199 15.0537 47.7679 14.2328 47.7679 12.2569C47.7679 10.281 46.4956 9.58128 43.8964 9.58128H37.7762V15.0537H43.939H43.9369ZM44.1496 26.1895C47.1074 26.1895 48.5053 25.2115 48.5053 22.8579C48.5053 20.3473 47.1054 19.4508 44.1172 19.4508H37.7742V26.1895H44.1496Z" fill="#055E7C"/>
<path d="M75.0165 5.11267L84.4733 30.837H78.8171L77.0242 25.5494H66.8481L65.1322 30.837H59.4537L68.7788 5.11267H75.0145H75.0165ZM68.2703 21.214H75.5675L71.925 10.2651L68.2703 21.214V21.214Z" fill="#055E7C"/>
<path d="M91.9077 0H86.9077V10H91.9077V0Z" fill="#EB2227"/>
<path d="M193.08 5.29763C192.29 5.29763 191.573 5.60773 191.046 6.10866L179.343 15.3838L177.127 13.6524L167.585 6.19811L167.415 6.05499C167.269 5.93771 167.25 5.92181 167.015 5.75682C166.503 5.38311 165.928 5.14059 165.265 5.14059C163.719 5.14059 162.467 6.40484 162.467 7.96528C162.467 8.83395 162.856 9.61119 163.468 10.13L163.472 10.134C163.499 10.1558 163.525 10.1777 163.553 10.1996L174.42 18.9678L176.328 20.5084L176.337 28.1794V28.1933C176.351 29.7338 177.629 30.9782 179.201 30.9782C180.773 30.9782 182.019 29.7656 182.064 28.2509L182.07 28.241V20.5143L193.65 11.43L193.781 11.3227L194.12 11.0444C194.191 10.9848 194.286 10.9152 194.351 10.8536L194.807 10.4779C195.499 9.88948 196 9.11622 196 8.16804C196 6.58574 194.693 5.3036 193.08 5.3036V5.29763Z" fill="#00BCD4"/>
<path d="M165.632 26.5812L151.884 6.33328C151.357 5.61171 150.484 5.14059 149.512 5.14059C147.911 5.14059 146.613 6.41478 146.613 7.98516C146.613 8.61927 146.823 9.20369 147.18 9.67679L153.687 18.8704L141.313 18.8506C140.584 18.8704 139.435 19.3217 138.604 20.3315L134.247 26.4062C133.793 26.8932 133.517 27.5433 133.517 28.2549C133.517 29.7716 134.769 31.0001 136.315 31.0001C137.241 31.0001 138.061 30.5588 138.57 29.8789L138.606 29.8591L142.535 24.7345H157.828L160.988 29.5887C161.46 30.4296 162.374 31.0001 163.421 31.0001C164.955 31.0001 166.199 29.7796 166.199 28.2748C166.199 27.7063 166.021 27.1795 165.719 26.7422C165.692 26.6845 165.664 26.6289 165.634 26.5812H165.632Z" fill="#00BCD4"/>
<path d="M128.119 5.13657C128.098 5.13657 128.078 5.13657 128.058 5.13657H106.734C105.129 5.13657 103.83 6.41274 103.83 7.9851C103.83 8.55759 104.005 9.09033 104.3 9.5356C104.704 10.0962 105.271 10.4977 105.994 10.7362C106.231 10.7979 106.478 10.8336 106.734 10.8336H128.244H128.289C128.366 10.8336 128.441 10.8376 128.516 10.8456C129.699 10.9648 130.623 11.9468 130.623 13.1395C130.623 14.4018 129.588 15.4275 128.305 15.4434H128.111H120.149H106.592C104.868 15.4434 103.83 16.7593 103.83 18.2581V28.1077C103.83 29.6642 105.117 30.9265 106.703 30.9265C108.289 30.9265 109.515 29.7199 109.572 28.2131V21.1723H128.121L128.202 21.1683C128.202 21.1683 128.206 21.1683 128.208 21.1683C132.614 21.051 136.151 17.5087 136.151 13.1554C136.151 8.8021 132.568 5.20813 128.117 5.13657H128.119Z" fill="#00BCD4"/>
</svg>
