<svg width="196" height="54" viewBox="0 0 196 54" fill="none" xmlns="http://www.w3.org/2000/svg">
<path fill-rule="evenodd" clip-rule="evenodd" d="M17 0H178.91C188.299 0 195.91 7.61116 195.91 17V36.3511H196V53.9998L178.583 37H0V17C0 7.61116 7.61116 0 17 0Z" fill="#E21A1A"/>
<path d="M104.489 17.1027V20.5948H100.95C100.596 20.5948 100.331 20.3329 100.331 19.9836V17.1027C100.331 16.7535 100.596 16.4916 100.95 16.4916H103.781C104.224 16.4043 104.489 16.7535 104.489 17.1027Z" fill="white"/>
<path d="M120.944 18.5H119.175C119.175 16.4047 117.494 14.746 115.371 14.746C113.69 14.746 112.274 15.7936 111.743 17.365C111.655 17.7143 111.567 18.1507 111.567 18.5V23.9999H111.478C110.505 23.9999 109.797 23.2142 109.797 22.3412V18.5C109.797 17.0159 110.416 15.5317 111.567 14.4841C112.628 13.5238 113.955 13 115.371 13C118.467 13 120.944 15.4444 120.944 18.5Z" fill="white"/>
<path d="M120.945 24H118.467L117.848 23.3889L116.521 22.0794L114.663 20.2461H117.141L120.945 24Z" fill="white"/>
<path d="M105.108 22.2539H99.7998C99.1804 22.2539 98.6496 21.7301 98.6496 21.119V15.8809C98.6496 15.2698 99.1804 14.746 99.7998 14.746H105.108C105.727 14.746 106.258 15.2698 106.258 15.8809V21.119L108.027 22.865V14.6587C108.027 13.6984 107.231 13 106.346 13H98.6496C97.6761 13 96.9687 13.7857 96.9687 14.6587V22.2539C96.9687 23.2142 97.7646 23.9126 98.6496 23.9126H106.877L105.108 22.2539Z" fill="white"/>
<path d="M83.6095 23.9999H81.1321L76.0007 18.8492V23.9999H73.9661V13H76.0007V17.8888L80.9555 13H83.3438L78.0359 18.2381L83.6095 23.9999Z" fill="white"/>
<path d="M92.8982 13H94.8448V23.9999H92.8982V19.1984H87.236V23.9999H85.2014V13H87.236V17.6269H92.8982V13Z" fill="white"/>
</svg>
