<svg width="42" height="42" viewBox="0 0 42 42" fill="none" xmlns="http://www.w3.org/2000/svg">
<path d="M20.4252 26.8386V27.1049C20.3316 27.1843 20.2271 27.2487 20.1181 27.2945C19.953 27.3639 19.8307 27.369 19.7966 27.369V26.6758V26.6436C19.8684 26.6436 19.9555 26.6523 20.051 26.6758C20.1638 26.7035 20.2883 26.7518 20.4127 26.8306C20.4169 26.8332 20.421 26.8359 20.4252 26.8386ZM39.5759 20.7879C39.5759 10.4178 31.1582 2 20.788 2C10.4178 2 2.00008 10.4178 2.00008 20.7879C2.00008 31.1581 10.4178 39.5759 20.788 39.5759C31.1582 39.5759 39.5759 31.1581 39.5759 20.7879Z" fill="#00526A" stroke="white" stroke-width="4"/>
</svg>
