<svg width="190" height="27" viewBox="0 0 190 27" fill="none" xmlns="http://www.w3.org/2000/svg">
<path d="M3.36523 9.14062C1.53711 9.14062 0.300781 8.24414 0.195312 6.79688L0.189453 6.71484H1.24414L1.25586 6.79688C1.37891 7.64648 2.19922 8.16797 3.42383 8.16797C4.64258 8.16797 5.41016 7.61719 5.41016 6.74414V6.73828C5.41016 5.99414 4.92383 5.57812 3.76367 5.32031L2.82617 5.11523C1.17383 4.75195 0.400391 4.00781 0.400391 2.77148V2.76562C0.40625 1.37695 1.63672 0.404297 3.37695 0.404297C5.0293 0.404297 6.23633 1.35938 6.33008 2.74219L6.33594 2.83008H5.28125L5.26953 2.74805C5.14062 1.88672 4.41992 1.37695 3.34766 1.37695C2.2168 1.38281 1.47852 1.92188 1.47852 2.73633V2.74219C1.47852 3.43359 1.98828 3.86719 3.08984 4.10742L4.02734 4.3125C5.76172 4.69336 6.48828 5.39648 6.48828 6.68555V6.69141C6.48828 8.19141 5.29883 9.14062 3.36523 9.14062ZM10.0918 9.11719C8.36328 9.11719 7.26758 7.88672 7.26758 5.94727V5.94141C7.26758 4.01953 8.38672 2.78906 10.0801 2.78906C11.5977 2.78906 12.4941 3.79688 12.623 4.83984L12.6289 4.88672H11.6328L11.6211 4.83984C11.4688 4.23047 10.9766 3.69141 10.0801 3.69141C9.01953 3.69141 8.31055 4.57031 8.31055 5.95312V5.95898C8.31055 7.37695 9.03711 8.21484 10.0918 8.21484C10.9238 8.21484 11.457 7.74609 11.627 7.06641L11.6387 7.01953H12.6406L12.6348 7.06055C12.4707 8.2207 11.4688 9.11719 10.0918 9.11719ZM15.3594 9.11719C14.1465 9.11719 13.332 8.38477 13.332 7.27734V7.26562C13.332 6.22852 14.1406 5.57812 15.541 5.49609L17.2871 5.39648V4.88672C17.2871 4.14258 16.8008 3.69141 15.9512 3.69141C15.166 3.69141 14.6738 4.06641 14.5566 4.61133L14.5449 4.66406H13.5605L13.5664 4.59961C13.6543 3.59766 14.5273 2.78906 15.9629 2.78906C17.4043 2.78906 18.3066 3.56836 18.3066 4.78711V9H17.2871V8.00977H17.2637C16.9062 8.67773 16.1738 9.11719 15.3594 9.11719ZM14.375 7.27734C14.375 7.86328 14.8555 8.23242 15.5879 8.23242C16.5488 8.23242 17.2871 7.57031 17.2871 6.68555V6.1875L15.6582 6.28711C14.8438 6.33398 14.375 6.69727 14.375 7.26562V7.27734ZM19.6016 9V2.90625H20.6211V3.77344H20.6445C20.9727 3.20508 21.5938 2.78906 22.5195 2.78906C23.8555 2.78906 24.6289 3.65625 24.6289 5.04492V9H23.6094V5.22656C23.6094 4.23633 23.1465 3.69141 22.209 3.69141C21.248 3.69141 20.6211 4.37695 20.6211 5.41406V9H19.6016ZM29.5977 9L27.8926 2.90625H28.9062L30.125 7.86328H30.1484L31.5254 2.90625H32.5098L33.8926 7.86328H33.916L35.1348 2.90625H36.1426L34.4434 9H33.4062L32.0293 4.2832H32.0059L30.6348 9H29.5977ZM37.5547 1.875C37.2031 1.875 36.916 1.58789 36.916 1.23633C36.916 0.878906 37.2031 0.597656 37.5547 0.597656C37.9121 0.597656 38.1934 0.878906 38.1934 1.23633C38.1934 1.58789 37.9121 1.875 37.5547 1.875ZM37.0449 9V2.90625H38.0645V9H37.0449ZM41.4336 9.11719C40.3145 9.11719 39.7637 8.61328 39.7637 7.44727V3.75H38.873V2.90625H39.7637V1.25977H40.8184V2.90625H41.9785V3.75H40.8184V7.44141C40.8184 8.0918 41.1055 8.27344 41.6504 8.27344C41.7734 8.27344 41.8906 8.25586 41.9785 8.25V9.07617C41.8496 9.09375 41.6328 9.11719 41.4336 9.11719ZM43.127 9V0.544922H44.1465V3.87891H44.1699C44.498 3.19336 45.1602 2.78906 46.0684 2.78906C47.3633 2.78906 48.248 3.79102 48.248 5.26758V9H47.2285V5.44336C47.2285 4.3418 46.666 3.69141 45.7168 3.69141C44.7734 3.69141 44.1465 4.40625 44.1465 5.44336V9H43.127ZM51.4883 9L54.6348 0.544922H55.6777L58.8184 9H57.7109L56.8555 6.58008H53.4512L52.5957 9H51.4883ZM55.1445 1.81055L53.7734 5.68359H56.5391L55.168 1.81055H55.1445ZM59.791 9V0.544922H62.9961C64.4434 0.544922 65.4219 1.38867 65.4219 2.6543V2.66602C65.4219 3.53906 64.7656 4.38867 63.8926 4.51172V4.53516C65.1113 4.67578 65.8496 5.49609 65.8496 6.61523V6.62695C65.8496 8.11523 64.7832 9 62.9844 9H59.791ZM62.7559 1.47656H60.8457V4.18945H62.4277C63.6758 4.18945 64.3555 3.69141 64.3555 2.77734V2.76562C64.3555 1.93359 63.7754 1.47656 62.7559 1.47656ZM62.7266 5.09766H60.8457V8.06836H62.8262C64.0918 8.06836 64.7656 7.55859 64.7656 6.58594V6.57422C64.7656 5.5957 64.0742 5.09766 62.7266 5.09766ZM66.3711 9L69.5176 0.544922H70.5605L73.7012 9H72.5938L71.7383 6.58008H68.334L67.4785 9H66.3711ZM70.0273 1.81055L68.6562 5.68359H71.4219L70.0508 1.81055H70.0273ZM77.1348 9V0.544922H78.3535L81.2832 7.66992H81.3184L84.248 0.544922H85.4668V9H84.4824V2.4668H84.4473L81.7461 9H80.8555L78.1543 2.4668H78.1191V9H77.1348ZM89.4746 9.11719C87.7812 9.11719 86.6504 7.89258 86.6504 5.95312V5.94141C86.6504 4.00195 87.7871 2.78906 89.4688 2.78906C91.1504 2.78906 92.293 3.99609 92.293 5.94141V5.95312C92.293 7.89844 91.1562 9.11719 89.4746 9.11719ZM89.4805 8.21484C90.5527 8.21484 91.25 7.38281 91.25 5.95312V5.94141C91.25 4.51172 90.5469 3.69141 89.4688 3.69141C88.4082 3.69141 87.6934 4.51758 87.6934 5.94141V5.95312C87.6934 7.38867 88.4023 8.21484 89.4805 8.21484ZM96.3535 9.11719C95.4805 9.11719 94.8008 8.67773 94.4199 7.96875H94.3965V9H93.377V0.544922H94.3965V3.92578H94.4199C94.8008 3.22266 95.5098 2.78906 96.3711 2.78906C97.9004 2.78906 98.9434 4.02539 98.9434 5.94727V5.95312C98.9434 7.875 97.9121 9.11719 96.3535 9.11719ZM96.1543 8.21484C97.2324 8.21484 97.9004 7.35352 97.9004 5.95312V5.94727C97.9004 4.55859 97.2324 3.69141 96.1543 3.69141C95.1289 3.69141 94.3906 4.58789 94.3906 5.94727V5.95312C94.3906 7.31836 95.123 8.21484 96.1543 8.21484ZM100.543 1.875C100.191 1.875 99.9043 1.58789 99.9043 1.23633C99.9043 0.878906 100.191 0.597656 100.543 0.597656C100.9 0.597656 101.182 0.878906 101.182 1.23633C101.182 1.58789 100.9 1.875 100.543 1.875ZM100.033 9V2.90625H101.053V9H100.033ZM102.494 9V0.544922H103.514V9H102.494ZM107.398 9.11719C105.646 9.11719 104.592 7.89258 104.592 5.97656V5.9707C104.592 4.08398 105.67 2.78906 107.334 2.78906C108.998 2.78906 110.012 4.02539 110.012 5.85352V6.22852H105.623C105.646 7.48242 106.338 8.21484 107.422 8.21484C108.195 8.21484 108.74 7.82812 108.916 7.30664L108.934 7.25391H109.936L109.924 7.3125C109.725 8.32031 108.729 9.11719 107.398 9.11719ZM107.328 3.69141C106.443 3.69141 105.752 4.29492 105.641 5.43164H108.975C108.875 4.24805 108.219 3.69141 107.328 3.69141ZM110.633 10.6582L111.148 7.79297H112.215L111.359 10.6582H110.633ZM118.021 9.11719C116.328 9.11719 115.197 7.89258 115.197 5.95312V5.94141C115.197 4.00195 116.334 2.78906 118.016 2.78906C119.697 2.78906 120.84 3.99609 120.84 5.94141V5.95312C120.84 7.89844 119.703 9.11719 118.021 9.11719ZM118.027 8.21484C119.1 8.21484 119.797 7.38281 119.797 5.95312V5.94141C119.797 4.51172 119.094 3.69141 118.016 3.69141C116.955 3.69141 116.24 4.51758 116.24 5.94141V5.95312C116.24 7.38867 116.949 8.21484 118.027 8.21484ZM121.871 9V2.90625H122.891V3.9375H122.914C123.119 3.23438 123.646 2.78906 124.332 2.78906C124.508 2.78906 124.66 2.81836 124.742 2.83008V3.82031C124.66 3.79102 124.443 3.76172 124.197 3.76172C123.406 3.76172 122.891 4.3125 122.891 5.23828V9H121.871ZM130.561 9.11719C128.867 9.11719 127.736 7.89258 127.736 5.95312V5.94141C127.736 4.00195 128.873 2.78906 130.555 2.78906C132.236 2.78906 133.379 3.99609 133.379 5.94141V5.95312C133.379 7.89844 132.242 9.11719 130.561 9.11719ZM130.566 8.21484C131.639 8.21484 132.336 7.38281 132.336 5.95312V5.94141C132.336 4.51172 131.633 3.69141 130.555 3.69141C129.494 3.69141 128.779 4.51758 128.779 5.94141V5.95312C128.779 7.38867 129.488 8.21484 130.566 8.21484ZM136.391 9.11719C135.271 9.11719 134.721 8.61328 134.721 7.44727V3.75H133.83V2.90625H134.721V1.25977H135.775V2.90625H136.936V3.75H135.775V7.44141C135.775 8.0918 136.062 8.27344 136.607 8.27344C136.73 8.27344 136.848 8.25586 136.936 8.25V9.07617C136.807 9.09375 136.59 9.11719 136.391 9.11719ZM138.084 9V0.544922H139.104V3.87891H139.127C139.455 3.19336 140.117 2.78906 141.025 2.78906C142.32 2.78906 143.205 3.79102 143.205 5.26758V9H142.186V5.44336C142.186 4.3418 141.623 3.69141 140.674 3.69141C139.73 3.69141 139.104 4.40625 139.104 5.44336V9H138.084ZM147.008 9.11719C145.256 9.11719 144.201 7.89258 144.201 5.97656V5.9707C144.201 4.08398 145.279 2.78906 146.943 2.78906C148.607 2.78906 149.621 4.02539 149.621 5.85352V6.22852H145.232C145.256 7.48242 145.947 8.21484 147.031 8.21484C147.805 8.21484 148.35 7.82812 148.525 7.30664L148.543 7.25391H149.545L149.533 7.3125C149.334 8.32031 148.338 9.11719 147.008 9.11719ZM146.938 3.69141C146.053 3.69141 145.361 4.29492 145.25 5.43164H148.584C148.484 4.24805 147.828 3.69141 146.938 3.69141ZM150.652 9V2.90625H151.672V3.9375H151.695C151.9 3.23438 152.428 2.78906 153.113 2.78906C153.289 2.78906 153.441 2.81836 153.523 2.83008V3.82031C153.441 3.79102 153.225 3.76172 152.979 3.76172C152.188 3.76172 151.672 4.3125 151.672 5.23828V9H150.652ZM156.975 9V0.544922H158.193L161.123 7.66992H161.158L164.088 0.544922H165.307V9H164.322V2.4668H164.287L161.586 9H160.695L157.994 2.4668H157.959V9H156.975ZM169.314 9.11719C167.621 9.11719 166.49 7.89258 166.49 5.95312V5.94141C166.49 4.00195 167.627 2.78906 169.309 2.78906C170.99 2.78906 172.133 3.99609 172.133 5.94141V5.95312C172.133 7.89844 170.996 9.11719 169.314 9.11719ZM169.32 8.21484C170.393 8.21484 171.09 7.38281 171.09 5.95312V5.94141C171.09 4.51172 170.387 3.69141 169.309 3.69141C168.248 3.69141 167.533 4.51758 167.533 5.94141V5.95312C167.533 7.38867 168.242 8.21484 169.32 8.21484ZM176.193 9.11719C175.32 9.11719 174.641 8.67773 174.26 7.96875H174.236V9H173.217V0.544922H174.236V3.92578H174.26C174.641 3.22266 175.35 2.78906 176.211 2.78906C177.74 2.78906 178.783 4.02539 178.783 5.94727V5.95312C178.783 7.875 177.752 9.11719 176.193 9.11719ZM175.994 8.21484C177.072 8.21484 177.74 7.35352 177.74 5.95312V5.94727C177.74 4.55859 177.072 3.69141 175.994 3.69141C174.969 3.69141 174.23 4.58789 174.23 5.94727V5.95312C174.23 7.31836 174.963 8.21484 175.994 8.21484ZM180.383 1.875C180.031 1.875 179.744 1.58789 179.744 1.23633C179.744 0.878906 180.031 0.597656 180.383 0.597656C180.74 0.597656 181.021 0.878906 181.021 1.23633C181.021 1.58789 180.74 1.875 180.383 1.875ZM179.873 9V2.90625H180.893V9H179.873ZM182.334 9V0.544922H183.354V9H182.334ZM187.238 9.11719C185.486 9.11719 184.432 7.89258 184.432 5.97656V5.9707C184.432 4.08398 185.51 2.78906 187.174 2.78906C188.838 2.78906 189.852 4.02539 189.852 5.85352V6.22852H185.463C185.486 7.48242 186.178 8.21484 187.262 8.21484C188.035 8.21484 188.58 7.82812 188.756 7.30664L188.773 7.25391H189.775L189.764 7.3125C189.564 8.32031 188.568 9.11719 187.238 9.11719ZM187.168 3.69141C186.283 3.69141 185.592 4.29492 185.48 5.43164H188.814C188.715 4.24805 188.059 3.69141 187.168 3.69141ZM18.2773 24V15.5449H21.4824C22.9297 15.5449 23.9082 16.3887 23.9082 17.6543V17.666C23.9082 18.5391 23.252 19.3887 22.3789 19.5117V19.5352C23.5977 19.6758 24.3359 20.4961 24.3359 21.6152V21.627C24.3359 23.1152 23.2695 24 21.4707 24H18.2773ZM21.2422 16.4766H19.332V19.1895H20.9141C22.1621 19.1895 22.8418 18.6914 22.8418 17.7773V17.7656C22.8418 16.9336 22.2617 16.4766 21.2422 16.4766ZM21.2129 20.0977H19.332V23.0684H21.3125C22.5781 23.0684 23.252 22.5586 23.252 21.5859V21.5742C23.252 20.5957 22.5605 20.0977 21.2129 20.0977ZM27.1543 24.1172C25.9414 24.1172 25.127 23.3848 25.127 22.2773V22.2656C25.127 21.2285 25.9355 20.5781 27.3359 20.4961L29.082 20.3965V19.8867C29.082 19.1426 28.5957 18.6914 27.7461 18.6914C26.9609 18.6914 26.4688 19.0664 26.3516 19.6113L26.3398 19.6641H25.3555L25.3613 19.5996C25.4492 18.5977 26.3223 17.7891 27.7578 17.7891C29.1992 17.7891 30.1016 18.5684 30.1016 19.7871V24H29.082V23.0098H29.0586C28.7012 23.6777 27.9688 24.1172 27.1543 24.1172ZM26.1699 22.2773C26.1699 22.8633 26.6504 23.2324 27.3828 23.2324C28.3438 23.2324 29.082 22.5703 29.082 21.6855V21.1875L27.4531 21.2871C26.6387 21.334 26.1699 21.6973 26.1699 22.2656V22.2773ZM31.3965 24V17.9062H32.416V18.7734H32.4395C32.7676 18.2051 33.3887 17.7891 34.3145 17.7891C35.6504 17.7891 36.4238 18.6562 36.4238 20.0449V24H35.4043V20.2266C35.4043 19.2363 34.9414 18.6914 34.0039 18.6914C33.043 18.6914 32.416 19.377 32.416 20.4141V24H31.3965ZM37.8066 24V15.5449H38.8262V20.5957H38.8496L41.5215 17.9062H42.7578L40.1152 20.5371L42.8398 24H41.6562L39.3945 21.1582L38.8262 21.7031V24H37.8066ZM44.123 16.875C43.7715 16.875 43.4844 16.5879 43.4844 16.2363C43.4844 15.8789 43.7715 15.5977 44.123 15.5977C44.4805 15.5977 44.7617 15.8789 44.7617 16.2363C44.7617 16.5879 44.4805 16.875 44.123 16.875ZM43.6133 24V17.9062H44.6328V24H43.6133ZM46.0215 24V17.9062H47.041V18.7734H47.0645C47.3926 18.2051 48.0137 17.7891 48.9395 17.7891C50.2754 17.7891 51.0488 18.6562 51.0488 20.0449V24H50.0293V20.2266C50.0293 19.2363 49.5664 18.6914 48.6289 18.6914C47.668 18.6914 47.041 19.377 47.041 20.4141V24H46.0215ZM54.9277 26.168C53.4219 26.168 52.4727 25.459 52.2734 24.5566L52.2617 24.5039H53.2871L53.3105 24.5566C53.5039 24.9961 54.084 25.2656 54.916 25.2656C55.9883 25.2656 56.5977 24.6738 56.5977 23.7305V22.9512H56.5742C56.2109 23.625 55.5078 24.0586 54.6348 24.0586C53.0996 24.0586 52.0508 22.8223 52.0508 20.918V20.9121C52.0508 19.0195 53.1113 17.7891 54.6582 17.7891C55.5195 17.7891 56.1992 18.2578 56.5742 18.9375H56.5977V17.9062H57.6172V23.8301C57.6172 25.2422 56.5801 26.168 54.9277 26.168ZM54.8574 23.1562C55.8945 23.1562 56.5977 22.2715 56.5977 20.918V20.9121C56.5977 19.5703 55.8887 18.6914 54.8574 18.6914C53.7734 18.6914 53.0938 19.5586 53.0938 20.9121V20.918C53.0938 22.3008 53.7734 23.1562 54.8574 23.1562ZM60.8809 24L64.0273 15.5449H65.0703L68.2109 24H67.1035L66.248 21.5801H62.8438L61.9883 24H60.8809ZM64.5371 16.8105L63.166 20.6836H65.9316L64.5605 16.8105H64.5371ZM69.0254 26.0508V17.9062H70.0449V18.9375H70.0684C70.4492 18.2285 71.1289 17.7891 72.002 17.7891C73.5605 17.7891 74.5918 19.0312 74.5918 20.9531V20.959C74.5918 22.8809 73.5488 24.1172 72.0195 24.1172C71.1582 24.1172 70.4492 23.6836 70.0684 22.9805H70.0449V26.0508H69.0254ZM71.8027 23.2148C72.8809 23.2148 73.5488 22.3477 73.5488 20.959V20.9531C73.5488 19.5527 72.8809 18.6914 71.8027 18.6914C70.7715 18.6914 70.0391 19.5879 70.0391 20.9531V20.959C70.0391 22.3184 70.7773 23.2148 71.8027 23.2148ZM75.623 26.0508V17.9062H76.6426V18.9375H76.666C77.0469 18.2285 77.7266 17.7891 78.5996 17.7891C80.1582 17.7891 81.1895 19.0312 81.1895 20.9531V20.959C81.1895 22.8809 80.1465 24.1172 78.6172 24.1172C77.7559 24.1172 77.0469 23.6836 76.666 22.9805H76.6426V26.0508H75.623ZM78.4004 23.2148C79.4785 23.2148 80.1465 22.3477 80.1465 20.959V20.9531C80.1465 19.5527 79.4785 18.6914 78.4004 18.6914C77.3691 18.6914 76.6367 19.5879 76.6367 20.9531V20.959C76.6367 22.3184 77.375 23.2148 78.4004 23.2148ZM86.8438 24.1172C85.4082 24.1172 84.541 23.3848 84.418 22.2949L84.4121 22.2422H85.4316L85.4434 22.3008C85.5664 22.9102 86.0176 23.2676 86.8496 23.2676C87.6758 23.2676 88.168 22.9219 88.168 22.3711V22.3652C88.168 21.9258 87.9395 21.6797 87.248 21.5098L86.2812 21.2754C85.1328 21 84.5762 20.4668 84.5762 19.5879V19.582C84.5762 18.5332 85.4961 17.7891 86.8145 17.7891C88.1504 17.7891 89 18.5684 89.0762 19.5879L89.082 19.6641H88.1094L88.1035 19.623C88.0215 19.0312 87.5703 18.6387 86.8145 18.6387C86.0762 18.6387 85.6191 18.9961 85.6191 19.5352V19.541C85.6191 19.957 85.8945 20.2441 86.5684 20.4082L87.5352 20.6426C88.7656 20.9414 89.2109 21.4277 89.2109 22.2949V22.3008C89.2109 23.3672 88.2031 24.1172 86.8438 24.1172ZM92.3516 24.1172C91.0156 24.1172 90.2422 23.25 90.2422 21.8613V17.9062H91.2617V21.6797C91.2617 22.6699 91.7246 23.2148 92.6621 23.2148C93.623 23.2148 94.25 22.5293 94.25 21.4922V17.9062H95.2695V24H94.25V23.1328H94.2266C93.8984 23.7012 93.2773 24.1172 92.3516 24.1172ZM96.5996 26.0508V17.9062H97.6191V18.9375H97.6426C98.0234 18.2285 98.7031 17.7891 99.5762 17.7891C101.135 17.7891 102.166 19.0312 102.166 20.9531V20.959C102.166 22.8809 101.123 24.1172 99.5938 24.1172C98.7324 24.1172 98.0234 23.6836 97.6426 22.9805H97.6191V26.0508H96.5996ZM99.377 23.2148C100.455 23.2148 101.123 22.3477 101.123 20.959V20.9531C101.123 19.5527 100.455 18.6914 99.377 18.6914C98.3457 18.6914 97.6133 19.5879 97.6133 20.9531V20.959C97.6133 22.3184 98.3516 23.2148 99.377 23.2148ZM103.197 26.0508V17.9062H104.217V18.9375H104.24C104.621 18.2285 105.301 17.7891 106.174 17.7891C107.732 17.7891 108.764 19.0312 108.764 20.9531V20.959C108.764 22.8809 107.721 24.1172 106.191 24.1172C105.33 24.1172 104.621 23.6836 104.24 22.9805H104.217V26.0508H103.197ZM105.975 23.2148C107.053 23.2148 107.721 22.3477 107.721 20.959V20.9531C107.721 19.5527 107.053 18.6914 105.975 18.6914C104.943 18.6914 104.211 19.5879 104.211 20.9531V20.959C104.211 22.3184 104.949 23.2148 105.975 23.2148ZM112.32 24.1172C110.627 24.1172 109.496 22.8926 109.496 20.9531V20.9414C109.496 19.002 110.633 17.7891 112.314 17.7891C113.996 17.7891 115.139 18.9961 115.139 20.9414V20.9531C115.139 22.8984 114.002 24.1172 112.32 24.1172ZM112.326 23.2148C113.398 23.2148 114.096 22.3828 114.096 20.9531V20.9414C114.096 19.5117 113.393 18.6914 112.314 18.6914C111.254 18.6914 110.539 19.5176 110.539 20.9414V20.9531C110.539 22.3887 111.248 23.2148 112.326 23.2148ZM116.17 24V17.9062H117.189V18.9375H117.213C117.418 18.2344 117.945 17.7891 118.631 17.7891C118.807 17.7891 118.959 17.8184 119.041 17.8301V18.8203C118.959 18.791 118.742 18.7617 118.496 18.7617C117.705 18.7617 117.189 19.3125 117.189 20.2383V24H116.17ZM122.146 24.1172C121.027 24.1172 120.477 23.6133 120.477 22.4473V18.75H119.586V17.9062H120.477V16.2598H121.531V17.9062H122.691V18.75H121.531V22.4414C121.531 23.0918 121.818 23.2734 122.363 23.2734C122.486 23.2734 122.604 23.2559 122.691 23.25V24.0762C122.562 24.0938 122.346 24.1172 122.146 24.1172ZM124.361 16.875C124.01 16.875 123.723 16.5879 123.723 16.2363C123.723 15.8789 124.01 15.5977 124.361 15.5977C124.719 15.5977 125 15.8789 125 16.2363C125 16.5879 124.719 16.875 124.361 16.875ZM123.852 24V17.9062H124.871V24H123.852ZM126.26 24V17.9062H127.279V18.7734H127.303C127.631 18.2051 128.252 17.7891 129.178 17.7891C130.514 17.7891 131.287 18.6562 131.287 20.0449V24H130.268V20.2266C130.268 19.2363 129.805 18.6914 128.867 18.6914C127.906 18.6914 127.279 19.377 127.279 20.4141V24H126.26ZM135.166 26.168C133.66 26.168 132.711 25.459 132.512 24.5566L132.5 24.5039H133.525L133.549 24.5566C133.742 24.9961 134.322 25.2656 135.154 25.2656C136.227 25.2656 136.836 24.6738 136.836 23.7305V22.9512H136.812C136.449 23.625 135.746 24.0586 134.873 24.0586C133.338 24.0586 132.289 22.8223 132.289 20.918V20.9121C132.289 19.0195 133.35 17.7891 134.896 17.7891C135.758 17.7891 136.438 18.2578 136.812 18.9375H136.836V17.9062H137.855V23.8301C137.855 25.2422 136.818 26.168 135.166 26.168ZM135.096 23.1562C136.133 23.1562 136.836 22.2715 136.836 20.918V20.9121C136.836 19.5703 136.127 18.6914 135.096 18.6914C134.012 18.6914 133.332 19.5586 133.332 20.9121V20.918C133.332 22.3008 134.012 23.1562 135.096 23.1562ZM141.793 24V15.5449H142.848V19.6934H142.883L146.469 15.5449H147.793L144.488 19.2891L148.104 24H146.756L143.75 20.0508L142.848 21.041V24H141.793ZM149 24V15.5449H150.055V19.2012H154.695V15.5449H155.75V24H154.695V20.1504H150.055V24H149ZM160.965 24.1406C158.562 24.1406 157.062 22.459 157.062 19.7754V19.7637C157.062 17.0859 158.568 15.4043 160.965 15.4043C163.355 15.4043 164.855 17.0859 164.855 19.7637V19.7754C164.855 21.416 164.299 22.6758 163.32 23.4141L164.439 24.9551H163.256L162.477 23.877C162.025 24.0527 161.516 24.1406 160.965 24.1406ZM160.965 23.168C161.287 23.168 161.586 23.1211 161.861 23.0332L160.801 21.5801H161.984L162.705 22.5703C163.385 21.9902 163.771 21.0117 163.771 19.7754V19.7637C163.771 17.6895 162.688 16.377 160.965 16.377C159.236 16.377 158.146 17.6836 158.146 19.7637V19.7754C158.146 21.8555 159.23 23.168 160.965 23.168ZM166.168 24V15.5449H169.338C170.967 15.5449 172.033 16.541 172.033 18.0645V18.0762C172.033 19.248 171.389 20.1562 170.334 20.4902L172.291 24H171.055L169.244 20.6543H167.223V24H166.168ZM167.223 19.7227H169.244C170.328 19.7227 170.943 19.1367 170.943 18.0996V18.0879C170.943 17.0801 170.281 16.4824 169.197 16.4824H167.223V19.7227Z" fill="#878787"/>
</svg>
